<svg xmlns="http://www.w3.org/2000/svg" xmlns:xlink="http://www.w3.org/1999/xlink" width="1920" zoomAndPan="magnify" viewBox="0 0 1440 809.999993" height="1080" preserveAspectRatio="xMidYMid meet" version="1.0"><defs><g/><clipPath id="7896368686"><path d="M 396 43 L 508 43 L 508 145 L 396 145 Z M 396 43 " clip-rule="nonzero"/></clipPath><clipPath id="747f5457ed"><path d="M 380.671875 69.125 L 506.074219 38.871094 L 528.589844 132.191406 L 403.1875 162.449219 Z M 380.671875 69.125 " clip-rule="nonzero"/></clipPath><clipPath id="02579901f1"><path d="M 380.671875 69.125 L 506.074219 38.871094 L 528.589844 132.191406 L 403.1875 162.449219 Z M 380.671875 69.125 " clip-rule="nonzero"/></clipPath><clipPath id="1ae7d18e72"><path d="M 385.796875 67.890625 L 506.15625 38.847656 L 526.523438 123.253906 L 406.164062 152.296875 Z M 385.796875 67.890625 " clip-rule="nonzero"/></clipPath><clipPath id="acbedd2f1b"><path d="M 401 61 L 484 61 L 484 163 L 401 163 Z M 401 61 " clip-rule="nonzero"/></clipPath><clipPath id="939b1e44bf"><path d="M 380.671875 69.125 L 506.074219 38.871094 L 528.589844 132.191406 L 403.1875 162.449219 Z M 380.671875 69.125 " clip-rule="nonzero"/></clipPath><clipPath id="8326d86c4b"><path d="M 380.671875 69.125 L 506.074219 38.871094 L 528.589844 132.191406 L 403.1875 162.449219 Z M 380.671875 69.125 " clip-rule="nonzero"/></clipPath><clipPath id="91c5b4e6a9"><path d="M 384.386719 84.4375 L 483.769531 60.457031 L 502.632812 138.644531 L 403.253906 162.625 Z M 384.386719 84.4375 " clip-rule="nonzero"/></clipPath><clipPath id="cd05e83c9e"><path d="M 437 81 L 481 81 L 481 92 L 437 92 Z M 437 81 " clip-rule="nonzero"/></clipPath><clipPath id="5202a401d3"><path d="M 380.671875 69.125 L 506.074219 38.871094 L 528.589844 132.191406 L 403.1875 162.449219 Z M 380.671875 69.125 " clip-rule="nonzero"/></clipPath><clipPath id="e187291de8"><path d="M 380.671875 69.125 L 506.074219 38.871094 L 528.589844 132.191406 L 403.1875 162.449219 Z M 380.671875 69.125 " clip-rule="nonzero"/></clipPath><clipPath id="a8916ac631"><path d="M 421 103 L 465 103 L 465 113 L 421 113 Z M 421 103 " clip-rule="nonzero"/></clipPath><clipPath id="e71e09f045"><path d="M 380.671875 69.125 L 506.074219 38.871094 L 528.589844 132.191406 L 403.1875 162.449219 Z M 380.671875 69.125 " clip-rule="nonzero"/></clipPath><clipPath id="41fd2ab5c3"><path d="M 380.671875 69.125 L 506.074219 38.871094 L 528.589844 132.191406 L 403.1875 162.449219 Z M 380.671875 69.125 " clip-rule="nonzero"/></clipPath><clipPath id="3f82d074dc"><path d="M 447 56 L 454 56 L 454 83 L 447 83 Z M 447 56 " clip-rule="nonzero"/></clipPath><clipPath id="97bcbe660c"><path d="M 380.671875 69.125 L 506.074219 38.871094 L 528.589844 132.191406 L 403.1875 162.449219 Z M 380.671875 69.125 " clip-rule="nonzero"/></clipPath><clipPath id="0bd1874b2e"><path d="M 380.671875 69.125 L 506.074219 38.871094 L 528.589844 132.191406 L 403.1875 162.449219 Z M 380.671875 69.125 " clip-rule="nonzero"/></clipPath><clipPath id="931ee0bf44"><path d="M 424 74 L 432 74 L 432 106 L 424 106 Z M 424 74 " clip-rule="nonzero"/></clipPath><clipPath id="cd13573ec7"><path d="M 380.671875 69.125 L 506.074219 38.871094 L 528.589844 132.191406 L 403.1875 162.449219 Z M 380.671875 69.125 " clip-rule="nonzero"/></clipPath><clipPath id="a49bf3ccea"><path d="M 380.671875 69.125 L 506.074219 38.871094 L 528.589844 132.191406 L 403.1875 162.449219 Z M 380.671875 69.125 " clip-rule="nonzero"/></clipPath></defs><g clip-path="url(#7896368686)"><g clip-path="url(#747f5457ed)"><g clip-path="url(#02579901f1)"><g clip-path="url(#1ae7d18e72)"><path fill="#ffffff" d="M 507.324219 43.675781 C 491.167969 64.691406 486.839844 91.730469 477.734375 108.640625 C 419.960938 215.921875 314.671875 52.1875 507.324219 43.675781 " fill-opacity="1" fill-rule="evenodd"/></g></g></g></g><g clip-path="url(#acbedd2f1b)"><g clip-path="url(#939b1e44bf)"><g clip-path="url(#8326d86c4b)"><g clip-path="url(#91c5b4e6a9)"><path fill="#7ed957" d="M 401.671875 156.0625 C 412.277344 130.082031 419.476562 103.382812 445.59375 82.078125 C 456.175781 73.445312 458.066406 70.710938 470.699219 64.328125 L 470.5625 64.398438 C 475.953125 62.308594 478.394531 62.234375 483.832031 61.363281 C 479.671875 63.023438 482.679688 61.988281 477.476562 63.386719 C 464.941406 66.757812 456.730469 75.738281 447.207031 83.964844 C 420.410156 107.113281 416.070312 133.964844 404.085938 162.421875 L 401.671875 156.0625 " fill-opacity="1" fill-rule="evenodd"/></g></g></g></g><g clip-path="url(#cd05e83c9e)"><g clip-path="url(#5202a401d3)"><g clip-path="url(#e187291de8)"><path fill="#7ed957" d="M 437.851562 89.425781 C 439.890625 88.632812 442.003906 87.902344 444.207031 87.238281 C 455.253906 83.90625 457.609375 82.378906 469.535156 81.464844 L 469.402344 81.476562 C 474.285156 81.578125 476.21875 82.308594 480.746094 83.378906 C 476.960938 83.335938 479.644531 83.496094 475.128906 82.914062 C 464.253906 81.503906 454.949219 85.875 444.859375 89.234375 C 442.640625 89.96875 440.523438 90.769531 438.496094 91.625 C 438.570312 90.835938 438.339844 90.046875 437.851562 89.425781 " fill-opacity="1" fill-rule="evenodd"/></g></g></g><g clip-path="url(#a8916ac631)"><g clip-path="url(#e71e09f045)"><g clip-path="url(#41fd2ab5c3)"><path fill="#7ed957" d="M 421.351562 110.421875 C 421.472656 110.382812 421.589844 110.347656 421.707031 110.308594 C 434.785156 106.367188 437.574219 104.558594 451.6875 103.476562 L 451.535156 103.492188 C 457.3125 103.613281 459.597656 104.472656 464.960938 105.742188 C 460.480469 105.691406 463.65625 105.882812 458.308594 105.191406 C 445.4375 103.527344 434.421875 108.699219 422.480469 112.671875 L 422.226562 112.757812 C 422.214844 111.90625 421.90625 111.074219 421.351562 110.421875 " fill-opacity="1" fill-rule="evenodd"/></g></g></g><g clip-path="url(#3f82d074dc)"><g clip-path="url(#97bcbe660c)"><g clip-path="url(#0bd1874b2e)"><path fill="#7ed957" d="M 449.542969 81.5625 C 450.066406 80.199219 450.53125 78.820312 450.921875 77.417969 C 452.890625 70.398438 454.058594 68.585938 453.730469 62.035156 L 453.730469 62.109375 C 453.160156 59.609375 452.304688 58.882812 450.882812 56.9375 C 451.292969 58.890625 450.882812 57.558594 451.859375 59.683594 C 454.207031 64.796875 451.117188 71.3125 449.035156 77.847656 C 448.574219 79.28125 448.050781 80.6875 447.46875 82.070312 C 448.179688 81.730469 448.925781 81.546875 449.542969 81.5625 " fill-opacity="1" fill-rule="evenodd"/></g></g></g><g clip-path="url(#931ee0bf44)"><g clip-path="url(#cd13573ec7)"><g clip-path="url(#a49bf3ccea)"><path fill="#7ed957" d="M 427.144531 105.148438 C 427.167969 105.058594 427.195312 104.96875 427.21875 104.875 C 429.96875 94.949219 431.457031 92.535156 431.457031 82.792969 L 431.453125 82.898438 C 430.925781 79.078125 429.960938 77.816406 428.390625 74.628906 C 428.757812 77.601562 428.351562 75.542969 429.382812 78.894531 C 431.859375 86.976562 427.816406 95.902344 424.957031 105.082031 L 424.894531 105.28125 C 425.695312 105.027344 426.496094 104.976562 427.144531 105.148438 " fill-opacity="1" fill-rule="evenodd"/></g></g></g><g fill="#ffffff" fill-opacity="1"><g transform="translate(12.942663, 384.744493)"><g><path d="M 256.078125 -242.203125 C 248.992188 -257.921875 238.441406 -271.09375 224.421875 -281.71875 C 210.398438 -292.351562 194.453125 -297.671875 176.578125 -297.671875 C 156.847656 -297.671875 139.429688 -291.582031 124.328125 -279.40625 C 109.234375 -267.238281 97.832031 -251.753906 90.125 -232.953125 C 82.425781 -214.160156 78.578125 -194.132812 78.578125 -172.875 C 78.578125 -138.976562 87.820312 -110.164062 106.3125 -86.4375 C 124.800781 -62.707031 148.375 -50.84375 177.03125 -50.84375 C 197.988281 -50.84375 216.171875 -58.46875 231.578125 -73.71875 C 246.984375 -88.976562 255.304688 -107.703125 256.546875 -129.890625 L 182.578125 -129.890625 L 182.578125 -185.359375 L 332.8125 -185.359375 L 332.8125 -175.65625 C 332.8125 -139.59375 326.492188 -107.617188 313.859375 -79.734375 C 301.222656 -51.847656 282.960938 -30.046875 259.078125 -14.328125 C 235.203125 1.390625 206.929688 9.25 174.265625 9.25 C 142.210938 9.25 113.472656 1.003906 88.046875 -15.484375 C 62.628906 -31.972656 42.984375 -54.082031 29.109375 -81.8125 C 15.242188 -109.550781 8.3125 -139.90625 8.3125 -172.875 C 8.3125 -207.382812 15.476562 -238.582031 29.8125 -266.46875 C 44.144531 -294.363281 64.328125 -316.550781 90.359375 -333.03125 C 116.398438 -349.519531 145.753906 -357.765625 178.421875 -357.765625 C 208.316406 -357.765625 235.203125 -350.675781 259.078125 -336.5 C 282.960938 -322.332031 301.992188 -301.6875 316.171875 -274.5625 Z M 256.078125 -242.203125 "/></g></g></g><g fill="#ffffff" fill-opacity="1"><g transform="translate(354.5048, 384.744493)"><g><path d="M 164.09375 -168.71875 C 156.082031 -174.257812 147.144531 -177.03125 137.28125 -177.03125 C 120.644531 -177.03125 108.242188 -171.40625 100.078125 -160.15625 C 91.910156 -148.914062 87.828125 -130.351562 87.828125 -104.46875 L 87.828125 0 L 23.109375 0 L 23.109375 -226.953125 L 87.828125 -226.953125 L 87.828125 -203.390625 L 88.75 -203.390625 C 95.21875 -213.242188 103.226562 -220.867188 112.78125 -226.265625 C 122.332031 -231.660156 133.117188 -234.359375 145.140625 -234.359375 C 154.078125 -234.046875 163.015625 -232.195312 171.953125 -228.8125 Z M 164.09375 -168.71875 "/></g></g></g><g fill="#ffffff" fill-opacity="1"><g transform="translate(521.356933, 384.744493)"><g><path d="M 75.34375 -103.078125 C 75.34375 -84.273438 79.347656 -69.40625 87.359375 -58.46875 C 95.367188 -47.53125 106.3125 -42.0625 120.1875 -42.0625 C 130.96875 -42.0625 139.820312 -44.988281 146.75 -50.84375 C 153.6875 -56.695312 159.3125 -64.09375 163.625 -73.03125 L 223.265625 -63.328125 C 215.242188 -40.210938 202.066406 -22.644531 183.734375 -10.625 C 165.398438 1.382812 144.21875 7.390625 120.1875 7.390625 C 86.59375 7.390625 59.316406 -3.546875 38.359375 -25.421875 C 17.410156 -47.296875 6.9375 -75.957031 6.9375 -111.40625 C 6.9375 -148.6875 16.796875 -178.5 36.515625 -200.84375 C 56.234375 -223.1875 83.039062 -234.359375 116.9375 -234.359375 C 150.84375 -234.359375 177.269531 -223.414062 196.21875 -201.53125 C 215.164062 -179.65625 224.640625 -148.6875 224.640625 -108.625 L 224.640625 -103.078125 Z M 163.625 -143.296875 C 161.46875 -157.472656 156.382812 -168.640625 148.375 -176.796875 C 140.363281 -184.960938 130.96875 -189.046875 120.1875 -189.046875 C 110.007812 -189.046875 100.914062 -185.347656 92.90625 -177.953125 C 84.894531 -170.554688 79.65625 -159.003906 77.1875 -143.296875 Z M 163.625 -143.296875 "/></g></g></g><g fill="#ffffff" fill-opacity="1"><g transform="translate(752.916654, 384.744493)"><g><path d="M 75.34375 -103.078125 C 75.34375 -84.273438 79.347656 -69.40625 87.359375 -58.46875 C 95.367188 -47.53125 106.3125 -42.0625 120.1875 -42.0625 C 130.96875 -42.0625 139.820312 -44.988281 146.75 -50.84375 C 153.6875 -56.695312 159.3125 -64.09375 163.625 -73.03125 L 223.265625 -63.328125 C 215.242188 -40.210938 202.066406 -22.644531 183.734375 -10.625 C 165.398438 1.382812 144.21875 7.390625 120.1875 7.390625 C 86.59375 7.390625 59.316406 -3.546875 38.359375 -25.421875 C 17.410156 -47.296875 6.9375 -75.957031 6.9375 -111.40625 C 6.9375 -148.6875 16.796875 -178.5 36.515625 -200.84375 C 56.234375 -223.1875 83.039062 -234.359375 116.9375 -234.359375 C 150.84375 -234.359375 177.269531 -223.414062 196.21875 -201.53125 C 215.164062 -179.65625 224.640625 -148.6875 224.640625 -108.625 L 224.640625 -103.078125 Z M 163.625 -143.296875 C 161.46875 -157.472656 156.382812 -168.640625 148.375 -176.796875 C 140.363281 -184.960938 130.96875 -189.046875 120.1875 -189.046875 C 110.007812 -189.046875 100.914062 -185.347656 92.90625 -177.953125 C 84.894531 -170.554688 79.65625 -159.003906 77.1875 -143.296875 Z M 163.625 -143.296875 "/></g></g></g><g fill="#ffffff" fill-opacity="1"><g transform="translate(984.476375, 384.744493)"><g><path d="M 226.5 0 L 161.78125 0 L 161.78125 -131.28125 C 161.78125 -147.914062 159.3125 -160.625 154.375 -169.40625 C 149.445312 -178.1875 140.207031 -182.578125 126.65625 -182.578125 C 114.320312 -182.578125 104.765625 -177.722656 97.984375 -168.015625 C 91.210938 -158.316406 87.828125 -141.445312 87.828125 -117.40625 L 87.828125 0 L 23.109375 0 L 23.109375 -226.953125 L 87.828125 -226.953125 L 87.828125 -206.15625 L 88.75 -206.15625 C 95.53125 -216.320312 104.15625 -223.5625 114.625 -227.875 C 125.101562 -232.195312 136.203125 -234.359375 147.921875 -234.359375 C 174.109375 -234.359375 193.75 -226.421875 206.84375 -210.546875 C 219.945312 -194.679688 226.5 -171.335938 226.5 -140.515625 Z M 226.5 0 "/></g></g></g><g fill="#ffffff" fill-opacity="1"><g transform="translate(76.48375, 772.571631)"><g><path d="M 258.09375 -256.25 C 248.53125 -267.957031 236.890625 -277.050781 223.171875 -283.53125 C 209.453125 -290.007812 195.5 -293.25 181.3125 -293.25 C 151.707031 -293.25 127.191406 -281.53125 107.765625 -258.09375 C 88.335938 -234.65625 78.625 -206.285156 78.625 -172.984375 C 78.625 -140.296875 88.488281 -112.539062 108.21875 -89.71875 C 127.957031 -66.90625 152.164062 -55.5 180.84375 -55.5 C 195.644531 -55.5 209.828125 -58.96875 223.390625 -65.90625 C 236.960938 -72.84375 248.53125 -81.707031 258.09375 -92.5 L 258.09375 -11.5625 C 245.144531 -5.394531 232.269531 -0.382812 219.46875 3.46875 C 206.675781 7.320312 193.1875 9.25 179 9.25 C 148.164062 9.25 119.875 1.390625 94.125 -14.328125 C 68.375 -30.054688 47.632812 -52.101562 31.90625 -80.46875 C 16.1875 -108.84375 8.328125 -139.21875 8.328125 -171.59375 C 8.328125 -205.519531 15.878906 -236.894531 30.984375 -265.71875 C 46.097656 -294.550781 66.835938 -317.140625 93.203125 -333.484375 C 119.566406 -349.828125 148.628906 -358 180.390625 -358 C 194.265625 -358 207.753906 -356.222656 220.859375 -352.671875 C 233.960938 -349.128906 246.375 -344.117188 258.09375 -337.640625 Z M 258.09375 -256.25 "/></g></g></g><g fill="#ffffff" fill-opacity="1"><g transform="translate(354.442485, 772.571631)"><g><path d="M 87.875 -392.234375 L 87.875 0 L 23.125 0 L 23.125 -392.234375 Z M 87.875 -392.234375 "/></g></g></g><g fill="#ffffff" fill-opacity="1"><g transform="translate(464.978457, 772.571631)"><g><path d="M 75.390625 -103.140625 C 75.390625 -84.335938 79.394531 -69.460938 87.40625 -58.515625 C 95.425781 -47.566406 106.378906 -42.09375 120.265625 -42.09375 C 131.054688 -42.09375 139.921875 -45.019531 146.859375 -50.875 C 153.796875 -56.738281 159.421875 -64.140625 163.734375 -73.078125 L 223.40625 -63.359375 C 215.382812 -40.234375 202.195312 -22.65625 183.84375 -10.625 C 165.5 1.394531 144.304688 7.40625 120.265625 7.40625 C 86.648438 7.40625 59.359375 -3.539062 38.390625 -25.4375 C 17.421875 -47.332031 6.9375 -76.007812 6.9375 -111.46875 C 6.9375 -148.78125 16.800781 -178.613281 36.53125 -200.96875 C 56.269531 -223.320312 83.097656 -234.5 117.015625 -234.5 C 150.941406 -234.5 177.382812 -223.550781 196.34375 -201.65625 C 215.3125 -179.769531 224.796875 -148.78125 224.796875 -108.6875 L 224.796875 -103.140625 Z M 163.734375 -143.390625 C 161.578125 -157.566406 156.488281 -168.738281 148.46875 -176.90625 C 140.457031 -185.082031 131.054688 -189.171875 120.265625 -189.171875 C 110.085938 -189.171875 100.988281 -185.46875 92.96875 -178.0625 C 84.945312 -170.664062 79.707031 -159.109375 77.25 -143.390625 Z M 163.734375 -143.390625 "/></g></g></g><g fill="#ffffff" fill-opacity="1"><g transform="translate(696.687798, 772.571631)"><g><path d="M 173.90625 -227.109375 L 237.734375 -227.109375 L 237.734375 0 L 173.90625 0 L 173.90625 -20.8125 L 172.984375 -20.8125 C 166.203125 -11.875 157.179688 -4.9375 145.921875 0 C 134.671875 4.9375 123.1875 7.40625 111.46875 7.40625 C 81.5625 7.40625 56.660156 -4.382812 36.765625 -27.96875 C 16.878906 -51.5625 6.9375 -80.472656 6.9375 -114.703125 C 6.9375 -135.984375 11.253906 -155.71875 19.890625 -173.90625 C 28.523438 -192.101562 40.78125 -206.75 56.65625 -217.84375 C 72.539062 -228.945312 90.503906 -234.5 110.546875 -234.5 C 122.265625 -234.5 133.75 -232.03125 145 -227.09375 C 156.257812 -222.164062 165.894531 -215.078125 173.90625 -205.828125 Z M 125.8125 -177.15625 C 111.3125 -177.15625 98.820312 -170.910156 88.34375 -158.421875 C 77.863281 -145.929688 72.625 -131.050781 72.625 -113.78125 C 72.625 -96.507812 77.863281 -81.550781 88.34375 -68.90625 C 98.820312 -56.269531 111.460938 -49.953125 126.265625 -49.953125 C 141.378906 -49.953125 154.175781 -56.195312 164.65625 -68.6875 C 175.144531 -81.175781 180.390625 -96.207031 180.390625 -113.78125 C 180.390625 -131.351562 175.066406 -146.304688 164.421875 -158.640625 C 153.785156 -170.984375 140.914062 -177.15625 125.8125 -177.15625 Z M 125.8125 -177.15625 "/></g></g></g><g fill="#ffffff" fill-opacity="1"><g transform="translate(957.996737, 772.571631)"><g><path d="M 226.640625 0 L 161.890625 0 L 161.890625 -131.359375 C 161.890625 -148.003906 159.421875 -160.722656 154.484375 -169.515625 C 149.546875 -178.304688 140.296875 -182.703125 126.734375 -182.703125 C 114.398438 -182.703125 104.835938 -177.84375 98.046875 -168.125 C 91.265625 -158.414062 87.875 -141.535156 87.875 -117.484375 L 87.875 0 L 23.125 0 L 23.125 -227.109375 L 87.875 -227.109375 L 87.875 -206.28125 L 88.8125 -206.28125 C 95.59375 -216.457031 104.222656 -223.703125 114.703125 -228.015625 C 125.191406 -232.335938 136.296875 -234.5 148.015625 -234.5 C 174.222656 -234.5 193.878906 -226.554688 206.984375 -210.671875 C 220.085938 -194.796875 226.640625 -171.441406 226.640625 -140.609375 Z M 226.640625 0 "/></g></g></g><g fill="#ffffff" fill-opacity="1"><g transform="translate(1224.257753, 380.61539)"><g><path d="M 115.265625 -120.921875 L 146.546875 -80.71875 L 169.171875 -109.609375 L 196.875 -83.6875 L 172.75 -51.234375 L 211.46875 0 L 158.15625 0 L 139.984375 -22.640625 C 130.847656 -14.296875 120.867188 -7.441406 110.046875 -2.078125 C 99.234375 3.273438 87.769531 5.953125 75.65625 5.953125 C 56.789062 5.953125 41.101562 -0.25 28.59375 -12.65625 C 16.082031 -25.070312 9.828125 -40.707031 9.828125 -59.5625 C 9.828125 -69.289062 11.460938 -77.828125 14.734375 -85.171875 C 18.015625 -92.523438 21.9375 -98.878906 26.5 -104.234375 C 31.070312 -109.597656 40.804688 -117.242188 55.703125 -127.171875 C 50.535156 -134.523438 46.210938 -142.023438 42.734375 -149.671875 C 39.265625 -157.316406 37.53125 -165.703125 37.53125 -174.828125 C 37.53125 -190.910156 42.890625 -204.210938 53.609375 -214.734375 C 64.335938 -225.265625 78.039062 -230.53125 94.71875 -230.53125 C 111.789062 -230.53125 125.640625 -225.265625 136.265625 -214.734375 C 146.890625 -204.210938 152.203125 -191.007812 152.203125 -175.125 C 152.203125 -165.394531 149.320312 -156.0625 143.5625 -147.125 C 137.800781 -138.195312 128.367188 -129.460938 115.265625 -120.921875 Z M 101.859375 -152.203125 C 106.828125 -156.566406 110.253906 -160.679688 112.140625 -164.546875 C 114.023438 -168.421875 114.96875 -172.644531 114.96875 -177.21875 C 114.96875 -183.375 113.378906 -188.582031 110.203125 -192.84375 C 107.023438 -197.113281 102.65625 -199.25 97.09375 -199.25 C 91.332031 -199.25 86.863281 -197.113281 83.6875 -192.84375 C 80.507812 -188.582031 78.921875 -183.769531 78.921875 -178.40625 C 78.921875 -174.632812 79.613281 -171.109375 81 -167.828125 C 82.394531 -164.554688 85.082031 -160.335938 89.0625 -155.171875 L 95.015625 -146.546875 Z M 114.078125 -52.71875 L 79.21875 -99.484375 C 70.289062 -93.128906 63.835938 -87.070312 59.859375 -81.3125 C 55.890625 -75.550781 53.90625 -69.59375 53.90625 -63.4375 C 53.90625 -56.09375 56.632812 -49.242188 62.09375 -42.890625 C 67.5625 -36.535156 73.769531 -33.359375 80.71875 -33.359375 C 87.070312 -33.359375 93.226562 -35.492188 99.1875 -39.765625 C 105.144531 -44.035156 110.109375 -48.351562 114.078125 -52.71875 Z M 114.078125 -52.71875 "/></g></g></g></svg>