<svg xmlns="http://www.w3.org/2000/svg" xmlns:xlink="http://www.w3.org/1999/xlink" width="450" zoomAndPan="magnify" viewBox="0 0 337.5 356.250003" height="475" preserveAspectRatio="xMidYMid meet" version="1.0"><defs><clipPath id="c5f471092e"><path d="M 0.355469 0.195312 L 333 0.195312 L 333 355.5 L 0.355469 355.5 Z M 0.355469 0.195312 " clip-rule="nonzero"/></clipPath></defs><g clip-path="url(#c5f471092e)"><path fill="#ffffff" d="M 182.328125 0.230469 L 177.984375 4.847656 C 170.964844 12.308594 164.160156 23.339844 161.308594 31.882812 C 157.441406 43.457031 161.472656 55.070312 172.894531 65.261719 C 178.046875 69.863281 182.191406 72.65625 197.699219 81.996094 C 215.597656 92.773438 221.675781 96.59375 226.667969 100.207031 C 231.222656 103.5 236.707031 108.589844 236.707031 109.523438 C 236.707031 110.828125 225.882812 111.539062 211.464844 111.175781 C 195.832031 110.78125 174.691406 111.613281 165.859375 112.96875 C 158.664062 114.074219 148.839844 116.617188 142.890625 118.914062 C 136.191406 121.5 131.46875 124.484375 126.777344 129.09375 C 123.085938 132.71875 122.1875 134.0625 118.902344 140.855469 C 116.863281 145.070312 114.105469 151.621094 112.769531 155.40625 C 108.585938 167.296875 106.578125 170.171875 100.144531 173.484375 C 96.660156 175.277344 89.992188 175.871094 81.5625 175.140625 C 72.546875 174.359375 63.1875 174.792969 54.28125 176.402344 C 38.570312 179.238281 30.042969 183.671875 20.367188 194.03125 C 14.390625 200.429688 6.699219 213.816406 2.4375 225.226562 L 0.355469 230.792969 L 0.429688 261.078125 C 0.472656 279.402344 0.6875 290.121094 0.972656 288.210938 C 1.808594 282.628906 3.59375 260.609375 4.359375 246.488281 C 4.722656 239.785156 5.246094 235.5625 6.089844 232.566406 C 8.722656 223.203125 17.144531 206.824219 22.929688 199.8125 C 26.613281 195.347656 33.652344 189.550781 38.140625 187.285156 C 42.5625 185.054688 47.800781 183.511719 55.515625 182.164062 C 65.042969 180.5 70.941406 180.222656 80.664062 180.992188 C 95.058594 182.125 102.484375 180.40625 109.183594 174.382812 C 112.632812 171.277344 114.246094 168.339844 117.613281 159.015625 C 120.988281 149.65625 124.867188 140.925781 127.054688 137.742188 C 133.085938 128.980469 143.761719 123.359375 160.984375 119.890625 C 172.324219 117.601562 179.683594 117.128906 206.015625 116.976562 C 233.078125 116.824219 240.125 116.296875 242.285156 114.269531 C 245.628906 111.128906 242.335938 104.914062 233.882812 98.414062 C 226.476562 92.722656 221.277344 89.386719 196.839844 74.65625 C 190.527344 70.851562 183.554688 66.386719 181.34375 64.730469 C 176.722656 61.265625 171.597656 56.070312 169.453125 52.671875 C 167.53125 49.625 165.574219 43.242188 165.574219 40.019531 C 165.574219 32.042969 174.371094 16.589844 184.878906 6.109375 L 190.773438 0.230469 Z M 212.683594 0.230469 L 208.460938 3.625 C 199.617188 10.738281 192.421875 20.957031 190.777344 28.742188 C 189.6875 33.890625 190.757812 39.894531 193.910156 46.371094 C 198.015625 54.792969 204.09375 60.945312 218.925781 71.679688 C 232.816406 81.730469 251.648438 97.65625 261.84375 107.96875 C 267.007812 113.195312 270.636719 117.957031 271.375 120.480469 C 271.691406 121.554688 271.449219 121.730469 269.277344 122.003906 C 267.929688 122.171875 261.40625 123.089844 254.777344 124.039062 C 248.152344 124.988281 240.410156 125.933594 237.570312 126.140625 C 193.625 129.3125 175.925781 131.542969 162.078125 135.65625 C 151.613281 138.765625 147.523438 141.46875 141.847656 149.019531 C 137.984375 154.15625 129.566406 170.269531 126.941406 177.546875 C 122.5 189.863281 119.695312 192.921875 110.949219 194.984375 C 105.984375 196.152344 102.742188 196.070312 88.929688 194.414062 C 66.214844 191.695312 58.195312 192.78125 45.859375 200.25 C 37.863281 205.089844 34.75 207.359375 30.261719 211.609375 C 22.949219 218.535156 19.828125 224.609375 16.695312 238.015625 C 13.878906 250.066406 13.453125 260.429688 15.054688 277.882812 C 16.925781 298.3125 16.292969 307.242188 12.628906 312.046875 C 10.582031 314.730469 8.910156 315.519531 4.230469 316.007812 L 0.355469 316.410156 L 0.355469 355.46875 L 9.679688 355.183594 C 20.824219 354.84375 25.722656 353.625 35.636719 348.71875 C 46.773438 343.210938 53.695312 336.824219 57.910156 328.167969 C 63.480469 316.742188 63.5625 305.464844 58.222656 285.34375 C 55.417969 274.78125 54.34375 269.550781 53.636719 263.019531 C 53 257.148438 53.035156 256.65625 54.492188 250.902344 C 56.027344 244.824219 60.097656 235.625 62.269531 233.308594 C 64.679688 230.742188 69.261719 230.949219 83.503906 234.261719 C 94.507812 236.820312 99.335938 237.347656 108.421875 236.980469 C 120.878906 236.480469 129.476562 234.234375 139.605469 228.847656 C 148.300781 224.222656 153.988281 218.984375 159.949219 210.113281 C 165.441406 201.9375 168.878906 193.707031 171.613281 182.207031 C 172.386719 178.960938 173.566406 175.027344 174.238281 173.464844 C 175.683594 170.105469 178.957031 166.964844 182.6875 165.359375 C 186.125 163.878906 194.410156 161.710938 200.28125 160.753906 C 206.09375 159.808594 222.828125 159.878906 241.011719 160.925781 C 266.171875 162.375 278.589844 161.722656 292.929688 158.195312 C 303.246094 155.65625 313.597656 150.9375 320.492188 145.632812 C 334.386719 134.941406 336.898438 117.90625 327.058594 101.109375 C 321.539062 91.695312 308.535156 78.1875 292.929688 65.660156 C 279.09375 54.554688 271.710938 47.007812 268.203125 40.386719 C 267.054688 38.21875 266.832031 36.976562 266.828125 32.628906 C 266.824219 27.757812 266.9375 27.28125 268.699219 24.53125 C 270.804688 21.25 275.851562 16.257812 279.734375 13.613281 C 284.644531 10.273438 291.523438 7.140625 303.539062 2.785156 L 310.425781 0.289062 L 261.554688 0.257812 Z M 212.683594 0.230469 " fill-opacity="1" fill-rule="nonzero"/></g></svg>