<svg xmlns="http://www.w3.org/2000/svg" xmlns:xlink="http://www.w3.org/1999/xlink" width="450" zoomAndPan="magnify" viewBox="0 0 337.5 356.250003" height="475" preserveAspectRatio="xMidYMid meet" version="1.0"><defs><clipPath id="0f9aa65d6b"><path d="M 4 0 L 336.894531 0 L 336.894531 355.496094 L 4 355.496094 Z M 4 0 " clip-rule="nonzero"/></clipPath></defs><g clip-path="url(#0f9aa65d6b)"><path fill="#ffffff" d="M 188.238281 355.457031 L 193.527344 349.832031 C 202.074219 340.75 210.355469 327.324219 213.828125 316.925781 C 218.53125 302.835938 213.625 288.699219 199.722656 276.292969 C 193.449219 270.699219 188.410156 267.296875 169.53125 255.925781 C 147.746094 242.808594 140.347656 238.15625 134.269531 233.761719 C 128.722656 229.75 122.046875 223.554688 122.046875 222.421875 C 122.046875 220.832031 135.222656 219.96875 152.773438 220.410156 C 171.800781 220.886719 197.535156 219.875 208.285156 218.226562 C 217.042969 216.882812 229 213.789062 236.246094 210.992188 C 244.394531 207.84375 250.144531 204.210938 255.859375 198.601562 C 260.351562 194.1875 261.445312 192.554688 265.445312 184.285156 C 267.925781 179.152344 271.285156 171.179688 272.90625 166.570312 C 278 152.097656 280.441406 148.597656 288.273438 144.566406 C 292.515625 142.386719 300.632812 141.660156 310.890625 142.550781 C 321.867188 143.5 333.261719 142.976562 344.101562 141.015625 C 363.226562 137.5625 373.601562 132.167969 385.378906 119.554688 C 392.652344 111.765625 402.019531 95.476562 407.207031 81.585938 L 409.738281 74.808594 L 409.652344 37.945312 C 409.597656 15.640625 409.335938 2.597656 408.988281 4.921875 C 407.972656 11.714844 405.796875 38.515625 404.867188 55.703125 C 404.425781 63.867188 403.785156 69.003906 402.757812 72.652344 C 399.554688 84.046875 389.304688 103.984375 382.261719 112.519531 C 377.78125 117.957031 369.210938 125.011719 363.75 127.765625 C 358.363281 130.480469 351.988281 132.359375 342.597656 134 C 331 136.027344 323.820312 136.363281 311.988281 135.429688 C 294.464844 134.046875 285.429688 136.144531 277.273438 143.472656 C 273.074219 147.25 271.113281 150.828125 267.015625 162.179688 C 262.902344 173.570312 258.183594 184.199219 255.519531 188.070312 C 248.179688 198.738281 235.183594 205.578125 214.222656 209.804688 C 200.417969 212.585938 191.460938 213.164062 159.40625 213.347656 C 126.464844 213.535156 117.886719 214.175781 115.257812 216.644531 C 111.1875 220.46875 115.195312 228.03125 125.488281 235.941406 C 134.503906 242.871094 140.828125 246.929688 170.578125 264.859375 C 178.257812 269.492188 186.746094 274.929688 189.4375 276.945312 C 195.0625 281.160156 201.300781 287.484375 203.914062 291.625 C 206.253906 295.328125 208.632812 303.097656 208.632812 307.019531 C 208.632812 316.730469 197.925781 335.542969 185.136719 348.296875 L 177.960938 355.457031 Z M 151.292969 355.457031 L 156.429688 351.320312 C 167.195312 342.664062 175.953125 330.222656 177.957031 320.746094 C 179.28125 314.480469 177.980469 307.171875 174.140625 299.292969 C 169.144531 289.039062 161.746094 281.550781 143.695312 268.488281 C 126.789062 256.25 103.863281 236.867188 91.449219 224.3125 C 85.164062 217.953125 80.746094 212.15625 79.851562 209.085938 C 79.46875 207.777344 79.761719 207.5625 82.402344 207.230469 C 84.042969 207.023438 91.988281 205.910156 100.050781 204.753906 C 108.117188 203.59375 117.542969 202.445312 121 202.195312 C 174.488281 198.332031 196.03125 195.617188 212.886719 190.609375 C 225.628906 186.824219 230.605469 183.539062 237.515625 174.347656 C 242.214844 168.09375 252.464844 148.480469 255.65625 139.621094 C 261.0625 124.632812 264.480469 120.90625 275.125 118.398438 C 281.167969 116.972656 285.113281 117.074219 301.925781 119.089844 C 329.578125 122.402344 339.335938 121.078125 354.351562 111.988281 C 364.082031 106.097656 367.875 103.335938 373.335938 98.160156 C 382.238281 89.726562 386.039062 82.335938 389.851562 66.019531 C 393.277344 51.347656 393.796875 38.734375 391.847656 17.488281 C 389.566406 -7.378906 390.339844 -18.246094 394.800781 -24.09375 C 397.289062 -27.359375 399.324219 -28.320312 405.023438 -28.914062 L 409.738281 -29.40625 L 409.738281 -76.945312 L 398.390625 -76.597656 C 384.828125 -76.1875 378.863281 -74.703125 366.792969 -68.730469 C 353.242188 -62.027344 344.816406 -54.25 339.683594 -43.71875 C 332.90625 -29.808594 332.804688 -16.082031 339.304688 8.410156 C 342.714844 21.265625 344.023438 27.632812 344.886719 35.582031 C 345.660156 42.730469 345.617188 43.328125 343.84375 50.335938 C 341.972656 57.726562 337.023438 68.925781 334.378906 71.746094 C 331.445312 74.871094 325.867188 74.621094 308.53125 70.585938 C 295.136719 67.472656 289.261719 66.828125 278.199219 67.277344 C 263.039062 67.890625 252.570312 70.621094 240.246094 77.175781 C 229.65625 82.808594 222.734375 89.183594 215.480469 99.980469 C 208.796875 109.933594 204.609375 119.949219 201.28125 133.949219 C 200.34375 137.898438 198.90625 142.6875 198.085938 144.59375 C 196.328125 148.675781 192.34375 152.5 187.804688 154.457031 C 183.621094 156.257812 173.535156 158.898438 166.386719 160.0625 C 159.308594 161.214844 138.945312 161.128906 116.8125 159.851562 C 86.183594 158.089844 71.066406 158.882812 53.617188 163.175781 C 41.058594 166.265625 28.457031 172.007812 20.0625 178.46875 C 3.152344 191.480469 0.09375 212.214844 12.074219 232.660156 C 18.789062 244.121094 34.617188 260.566406 53.617188 275.8125 C 70.453125 289.328125 79.441406 298.511719 83.714844 306.574219 C 85.109375 309.210938 85.378906 310.726562 85.382812 316.015625 C 85.386719 321.945312 85.253906 322.527344 83.105469 325.871094 C 80.542969 329.867188 74.402344 335.945312 69.675781 339.164062 C 63.703125 343.230469 55.324219 347.042969 40.699219 352.34375 L 32.320312 355.382812 L 91.804688 355.417969 Z M 151.292969 355.457031 " fill-opacity="1" fill-rule="nonzero"/></g></svg>